<?xml version="1.0" encoding="UTF-8" standalone="no"?> <svg xmlns="http://www.w3.org/2000/svg" viewBox="0 0 64 64"><g id="Layer_43" data-name="Layer 43"><path d="M57,10.75H7A4.26,4.26,0,0,0,2.75,15V49A4.26,4.26,0,0,0,7,53.25H57A4.26,4.26,0,0,0,61.25,49V15A4.26,4.26,0,0,0,57,10.75ZM58.75,49A1.76,1.76,0,0,1,57,50.75H7A1.76,1.76,0,0,1,5.25,49V15A1.76,1.76,0,0,1,7,13.25H57A1.76,1.76,0,0,1,58.75,15Z"/><path d="M21.29,32.39h-.75v-8.6a1.27,1.27,0,0,0-.82-1.18,1.24,1.24,0,0,0-1.38.36L9.77,32.82a1.24,1.24,0,0,0-.19,1.34,1.23,1.23,0,0,0,1.13.73H18v5.32a1.25,1.25,0,0,0,2.5,0V34.89h.75a1.25,1.25,0,0,0,0-2.5Zm-3.25,0H13.46L18,27.13Z"/><path d="M53.64,32.39h-.75v-8.6a1.26,1.26,0,0,0-.81-1.18A1.24,1.24,0,0,0,50.7,23l-8.57,9.85a1.26,1.26,0,0,0-.2,1.34,1.25,1.25,0,0,0,1.14.73h7.32v5.32a1.25,1.25,0,0,0,2.5,0V34.89h.75a1.25,1.25,0,0,0,0-2.5Zm-3.25,0H45.81l4.58-5.26Z"/><path d="M32,22.54a6,6,0,0,0-6,6v6.86a6,6,0,0,0,12.08,0V28.57A6,6,0,0,0,32,22.54Zm3.54,12.89a3.54,3.54,0,0,1-7.08,0V28.57a3.54,3.54,0,0,1,7.08,0Z"/></g></svg>