<?xml version="1.0" encoding="utf-8"?>
<svg viewBox="0 0 64 64" xmlns="http://www.w3.org/2000/svg">
  <g id="Layer_43" data-name="Layer 43">
    <path d="M57,10.75H7A4.26,4.26,0,0,0,2.75,15V49A4.26,4.26,0,0,0,7,53.25H57A4.26,4.26,0,0,0,61.25,49V15A4.26,4.26,0,0,0,57,10.75ZM58.75,49A1.76,1.76,0,0,1,57,50.75H7A1.76,1.76,0,0,1,5.25,49V15A1.76,1.76,0,0,1,7,13.25H57A1.76,1.76,0,0,1,58.75,15Z"/>
    <text style="font-family: Calibri; font-size: 29px; font-weight: 700; white-space: pre;" x="8.897" y="41.275">5</text>
    <text style="font-family: Calibri; font-size: 29px; font-weight: 700; white-space: pre;" x="40.368" y="40.901">1</text>
    <text style="font-family: Calibri; font-size: 29px; font-weight: 700; white-space: pre;" x="25.373" y="41.332">0</text>
  </g>
</svg>